<?xml version="1.0" encoding="utf-8"?>
<!-- Generator: Adobe Illustrator 25.4.1, SVG Export Plug-In . SVG Version: 6.00 Build 0)  -->
<svg version="1.1" id="Layer_1" xmlns="http://www.w3.org/2000/svg" xmlns:xlink="http://www.w3.org/1999/xlink" x="0px" y="0px"
	 viewBox="0 0 1080 1080" style="enable-background:new 0 0 1080 1080;" xml:space="preserve">
<style type="text/css">
	.st0{fill:#FFFFFF;}
	.st1{fill:url(#SVGID_1_);}
	.st2{fill:url(#SVGID_00000096037651047631294300000017631855903975109803_);}
	.st3{fill:url(#SVGID_00000021810189345637172050000007916827178590496396_);}
	.st4{fill:url(#SVGID_00000163041153620933432990000005976260194828701079_);}
	.st5{fill:url(#SVGID_00000010994444377134428330000001740822818107961739_);}
	.st6{fill:url(#SVGID_00000072963888749943936370000004951152683376111295_);}
	.st7{fill:#EC7723;}
	.st8{fill:#F3952C;}
	.st9{fill:#6F6F6E;}
	.st10{fill:url(#SVGID_00000086673044060419429080000001927251194851738784_);}
	.st11{fill:url(#SVGID_00000140006212638589738740000009761618237110702209_);}
	.st12{fill:url(#SVGID_00000115476771870339776040000011128052817272250767_);}
	.st13{fill:url(#SVGID_00000064332976515588399570000003292343952450871730_);}
	.st14{fill:url(#SVGID_00000112632959524858783280000000253939037369274303_);}
	.st15{fill:url(#SVGID_00000013153267605754317030000010230128385852676030_);}
	.st16{fill:url(#SVGID_00000158738415141902428940000001952862886554899900_);}
	.st17{fill:url(#SVGID_00000022558872527895742760000004924043595925880961_);}
	.st18{fill:url(#SVGID_00000107583177903645770260000013313289270042351010_);}
	.st19{fill:url(#SVGID_00000149378431414946026480000015710466245969899953_);}
</style>
<rect width="1080" height="1080"/>
<g>
	<linearGradient id="SVGID_1_" gradientUnits="userSpaceOnUse" x1="341.8684" y1="308.5954" x2="803.5781" y2="757.4798">
		<stop  offset="0" style="stop-color:#F3952C"/>
		<stop  offset="1" style="stop-color:#EC7723"/>
	</linearGradient>
	<path class="st1" d="M672.73,633.37l-70.89-91.42l164.94-216.62h-48.41L577.73,510.88l-58.24,76.85L392.98,754.67h46.9
		l103.76-136.24l107.11,136.24h21.99h47.02c25.97,0,47.03-21.06,47.03-47.03V381.37l-94.05,123.52V633.37z"/>
	
		<linearGradient id="SVGID_00000130618703766065410760000011634896150730129802_" gradientUnits="userSpaceOnUse" x1="302.4666" y1="349.123" x2="764.1763" y2="798.0073">
		<stop  offset="0" style="stop-color:#F3952C"/>
		<stop  offset="1" style="stop-color:#EC7723"/>
	</linearGradient>
	<path style="fill:url(#SVGID_00000130618703766065410760000011634896150730129802_);" d="M560.56,488.71l123.83-163.38h-44.26
		L537.93,459.53L433.86,325.33h-26.6h-47.02c-25.97,0-47.03,21.06-47.03,47.03v326.29l94.05-123.54V444.96l72.01,91.59
		L313.21,754.67h45.77l143.2-188.95L560.56,488.71z"/>
</g>
</svg>
