<?xml version="1.0" encoding="utf-8"?>
<!-- Generator: Adobe Illustrator 25.4.1, SVG Export Plug-In . SVG Version: 6.00 Build 0)  -->
<svg version="1.1" id="Layer_1" xmlns="http://www.w3.org/2000/svg" xmlns:xlink="http://www.w3.org/1999/xlink" x="0px" y="0px"
	 viewBox="0 0 1080 1080" style="enable-background:new 0 0 1080 1080;" xml:space="preserve">
<style type="text/css">
	.st0{fill:#FFFFFF;}
	.st1{fill:url(#SVGID_1_);}
	.st2{fill:url(#SVGID_00000142868725282934404040000012056094122750357439_);}
	.st3{fill:url(#SVGID_00000028309190591449266830000007429842647642243736_);}
	.st4{fill:url(#SVGID_00000029734283317049599550000003448535412955647375_);}
	.st5{fill:url(#SVGID_00000160164222950654783200000002648060621903131550_);}
	.st6{fill:url(#SVGID_00000024684472798997380270000001801265605895219628_);}
	.st7{fill:#EC7723;}
	.st8{fill:#F3952C;}
	.st9{fill:#6F6F6E;}
	.st10{fill:url(#SVGID_00000144333575213025408400000012575715946578731392_);}
	.st11{fill:url(#SVGID_00000134247525217460426240000005753413140791924098_);}
	.st12{fill:url(#SVGID_00000098188362632093201120000014785923211055324300_);}
	.st13{fill:url(#SVGID_00000102512549374255400410000004487558024975575965_);}
	.st14{fill:url(#SVGID_00000049217694243355846340000016594290956643923592_);}
	.st15{fill:url(#SVGID_00000168086934020227420550000018120443323770835870_);}
	.st16{fill:url(#SVGID_00000039838373400772859540000018184167676925678218_);}
	.st17{fill:url(#SVGID_00000166665105275562817750000009444018522943310741_);}
	.st18{fill:url(#SVGID_00000116931441480429710690000009222081402632868224_);}
	.st19{fill:url(#SVGID_00000094617032277232584010000016892761938607316125_);}
</style>
<linearGradient id="SVGID_1_" gradientUnits="userSpaceOnUse" x1="78.6284" y1="37.6783" x2="979.9617" y2="1019.0116">
	<stop  offset="0" style="stop-color:#F3952C"/>
	<stop  offset="1" style="stop-color:#EC7723"/>
</linearGradient>
<rect class="st1" width="1080" height="1080"/>
<g>
	<path class="st0" d="M672.73,633.37l-70.89-91.42l164.94-216.62h-48.41L577.73,510.88l-58.24,76.85L392.98,754.67h46.9
		l103.76-136.24l107.11,136.24h21.99h47.02c25.97,0,47.03-21.06,47.03-47.03V381.37l-94.05,123.52V633.37z"/>
	<path class="st0" d="M560.56,488.71l123.83-163.38h-44.26L537.93,459.53L433.86,325.33h-26.6h-47.02
		c-25.97,0-47.03,21.06-47.03,47.03v326.29l94.05-123.54V444.96l72.01,91.59L313.21,754.67h45.77l143.2-188.95L560.56,488.71z"/>
</g>
</svg>
